<svg width="26" height="26" viewBox="0 0 26 26" fill="#fe5252" xmlns="http://www.w3.org/2000/svg">
<g clip-path="url(#clip0_83_9)">
<path style="fill: #fe5252" d="M19.7441 8.59302V7.03052C19.7441 3.58423 16.9403 0.780518 13.4941 0.780518C10.0478 0.780518 7.24408 3.58423 7.24408 7.03052V8.59302H2.55658V21.8743C2.55658 24.0316 4.30546 25.7805 6.46283 25.7805H20.5253C22.6827 25.7805 24.4316 24.0316 24.4316 21.8743V8.59302H19.7441ZM10.3691 7.03052C10.3691 5.30737 11.7709 3.90552 13.4941 3.90552C15.2172 3.90552 16.6191 5.30737 16.6191 7.03052V8.59302H10.3691V7.03052ZM18.1816 12.8899C17.5344 12.8899 17.0097 12.3652 17.0097 11.718C17.0097 11.0708 17.5344 10.5461 18.1816 10.5461C18.8288 10.5461 19.3535 11.0708 19.3535 11.718C19.3535 12.3652 18.8288 12.8899 18.1816 12.8899ZM8.80658 12.8899C8.15936 12.8899 7.6347 12.3652 7.6347 11.718C7.6347 11.0708 8.15936 10.5461 8.80658 10.5461C9.4538 10.5461 9.97845 11.0708 9.97845 11.718C9.97845 12.3652 9.4538 12.8899 8.80658 12.8899Z" fill="black"/>
</g>
<defs>
<clipPath id="clip0_83_9">
<rect width="25" height="25" fill="white" transform="translate(0.99408 0.780518)"/>
</clipPath>
</defs>
</svg>
