<svg width="128" height="128" viewBox="0 0 128 128" fill="none" xmlns="http://www.w3.org/2000/svg">
<path d="M0 61.44C0 32.4768 0 17.9954 8.99768 8.99768C17.9954 0 32.4768 0 61.44 0H66.56C95.5232 0 110.005 0 119.002 8.99768C128 17.9954 128 32.4768 128 61.44V66.56C128 95.5232 128 110.005 119.002 119.002C110.005 128 95.5232 128 66.56 128H61.44C32.4768 128 17.9954 128 8.99768 119.002C0 110.005 0 95.5232 0 66.56V61.44Z" fill="#0077FF"/>
<path d="M68.1066 92.2136C38.9333 92.2136 22.2936 72.2136 21.6002 38.9336H36.2136C36.6936 63.3603 47.4666 73.7069 56 75.8403V38.9336H69.7605V60.0003C78.1872 59.0936 87.0394 49.4936 90.0261 38.9336H103.786C101.493 51.9469 91.893 61.5469 85.0664 65.4936C91.893 68.6936 102.827 77.0669 106.987 92.2136H91.8397C88.5864 82.0803 80.4805 74.2403 69.7605 73.1736V92.2136H68.1066Z" fill="white"/>
</svg>
