<svg width="48" height="49" viewBox="0 0 48 49" fill="none" xmlns="http://www.w3.org/2000/svg">
<path d="M20.7499 0C32.2101 0 41.5015 9.07812 41.5015 20.2772C41.5015 24.2415 40.3377 27.9405 38.3251 31.065C38.3133 31.0833 38.3209 31.1075 38.341 31.1161C38.3448 31.1178 38.3484 31.1202 38.3514 31.1232L46.3235 38.9123C47.0121 39.5851 47.5044 40.4329 47.7475 41.3646C48.7625 45.2559 45.2425 48.815 41.3402 47.843L41.134 47.7916C40.1989 47.5587 39.3428 47.0809 38.6536 46.4073L30.3576 38.2988C30.3539 38.2953 30.3523 38.2901 30.3535 38.2851C30.3565 38.2729 30.3442 38.2631 30.333 38.2688C27.4663 39.7299 24.2067 40.556 20.7499 40.556C9.28966 40.556 0 31.4764 0 20.2773C0.00012207 9.07812 9.28983 0 20.7499 0ZM20.7499 9.00796C14.3812 9.00796 9.21964 14.0535 9.21964 20.2772C9.21964 26.5009 14.3812 31.5464 20.7499 31.5464C27.1187 31.5464 32.2819 26.5009 32.2819 20.2772C32.2819 14.0535 27.1187 9.00796 20.7499 9.00796Z" fill="url(#paint0_linear_6_22)"/>
<defs>
<linearGradient id="paint0_linear_6_22" x1="0" y1="0" x2="49.3466" y2="50.6367" gradientUnits="userSpaceOnUse">
<stop stop-color="#FF4A4A"/>
<stop offset="1" stop-color="#E37712"/>
</linearGradient>
</defs>
</svg>
